<svg xmlns="http://www.w3.org/2000/svg" width="48" height="48"><style><![CDATA[.B{fill-rule:nonzero}.C{fill:#4a4946}.D{fill:#fcf2e3}.E{fill:#48aa97}.F{fill:#07090a}]]></style><circle cx="64" cy="64" r="62" fill="#e9b65b" transform="matrix(.387097 0 0 .387097 -.774194 -.774194)"/><path d="M35.539 9.004l4.716 4.716.154-.257 7.381 7.381c.871 6.982-1.177 13.31-5.124 18.24-3.968 4.955-11.003 9.371-20.319 8.851l-9.185-9.225L35.539 9.004z" fill="#e9a437" class="B"/><path d="M13.161 9.004h22.378V38.71H13.161z" fill="#fdfafa"/><g class="B"><path d="M17.525 15.948a.6.6 0 0 1-.41-.186l-1.529-1.931.821-.668 1.119 1.411 1.902-2.414.821.668-2.312 2.933a.6.6 0 0 1-.41.186z" class="E"/></g><path d="M21.59 12.606h11.786v.743H21.59zm0 2.079h5.893v.743H21.59z" class="C"/><g class="B"><path d="M17.525 22.223a.6.6 0 0 1-.41-.186l-1.529-1.894.821-.668 1.119 1.411 1.902-2.414.821.668L17.935 22c-.112.149-.261.223-.41.223z" class="E"/></g><path d="M21.59 18.881h11.786v.743H21.59zm0 2.079h5.893v.743H21.59z" class="C"/><g class="B"><path d="M17.525 28.498a.6.6 0 0 1-.41-.186l-1.529-1.894.821-.668 1.119 1.411 1.902-2.414.821.668-2.312 2.933c-.112.074-.261.149-.41.149z" class="E"/></g><path d="M21.59 25.156h11.786v.743H21.59zm0 2.08h5.893v.743H21.59z" class="C"/><path d="M19.054 35.182h-3.357c-.224 0-.41-.186-.41-.408v-3.342c0-.223.186-.408.41-.408h3.357c.224 0 .41.186.41.408v3.342c0 .186-.186.408-.41.408z" class="B D"/><path d="M21.59 31.432h11.786v.743H21.59zm0 2.116h5.893v.743H21.59z" class="C"/><g class="B"><path d="M31.474 27.421l-5.93-4.567L35.763 11.12c.373-.446 1.044-.52 1.529-.149l2.872 2.228c.485.371.559 1.04.224 1.522L31.474 27.42zM26.7 29.055l-1.566-1.225-1.305 1.671c-.075.074 0 .186.075.186h2.238c.037 0 .075 0 .075-.037l.485-.594z" fill="#43b19a"/><path d="M25.73 22.966l-.149.186-.075.074c.746 1.485.559 3.231-.448 4.567l1.716 1.337c1.044-1.3 2.723-1.931 4.364-1.56l.037-.074.149-.186-5.595-4.344z" class="C"/></g><g opacity=".15" class="B"><path d="M37.814 11.38l-.522-.408c-.485-.371-1.119-.297-1.529.149L25.544 22.854l.522.408 10.219-11.734c.41-.446 1.082-.52 1.529-.149z" fill="#fdfdfd"/></g><g opacity=".1" class="B F"><path d="M40.418 14.694c.336-.577.156-1.211-.275-1.505l-.527-.417c.485.371.585 1.023.25 1.505l-8.914 12.736.522.408 8.944-12.728z"/></g><g opacity=".1" class="B"><path d="M26.029 23.634l-.112-.223.149-.186-.336-.26-.149.186-.075.074c.746 1.485.559 3.231-.448 4.567l.186.149c1.007-1.337 1.529-2.822.783-4.307z" fill="#fdfdfd"/></g><g opacity=".2" class="B F"><path d="M30.952 27.013l-.149.186-.186-.037c-1.641-.371-2.984.483-4.028 1.819l-.336-.26.522.408c1.044-1.3 2.723-1.931 4.364-1.56l.037-.074.149-.186-.373-.297z"/></g><g opacity=".2" class="F"><g transform="matrix(.294309 .228104 -.229114 .293011 21.896984 -11.710134)"><path d="M65.5 67.4h19.1v.6H65.5z"/></g></g><defs><path id="B" d="M19.054 16.319h-3.357c-.224 0-.41-.186-.41-.408v-3.342c0-.223.186-.408.41-.408h3.357c.224 0 .41.186.41.408v3.342c0 .223-.186.408-.41.408z"/></defs></svg>