<svg xmlns="http://www.w3.org/2000/svg" height="49" width="48" viewBox="0 0 48 48.039"><circle cx="64" cy="64" r="63.5" fill="#f5f3dc" transform="matrix(.377953 0 0 .377643 -.188976 -.149484)"/><path d="M12.623 38.05l9.9 9.903c7.265.705 14.824-2.952 19.557-8.06 3.697-3.988 5.975-9.128 5.9-15.205L35.717 13.944z" fill="#d8d6c3"/><g transform="matrix(.377953 0 0 .377643 -.188976 -.149484)"><path d="M93 101.5H35c-1.1 0-2-.9-2-2v-71c0-1.1.9-2 2-2h48.892L95 37.32V99.5c0 1.1-.9 2-2 2z" fill="#db7272"/><path d="M43.7 60.5h-5.6a1.11 1.11 0 0 1-1.1-1.1v-2.6a1.11 1.11 0 0 1 1.1-1.1h5.6a1.11 1.11 0 0 1 1.1 1.1v2.6a1.11 1.11 0 0 1-1.1 1.1zm46.2.001h-5.6a1.11 1.11 0 0 1-1.1-1.101v-2.6a1.11 1.11 0 0 1 1.1-1.099h5.6A1.11 1.11 0 0 1 91 56.8v2.6a1.11 1.11 0 0 1-1.1 1.101zm-11.2 0H49.3a1.11 1.11 0 0 1-1.1-1.101v-2.6a1.11 1.11 0 0 1 1.1-1.099h29.4a1.11 1.11 0 0 1 1.1 1.099v2.6a1.11 1.11 0 0 1-1.1 1.101zm-35 7.2h-5.6a1.11 1.11 0 0 1-1.1-1.099V64a1.11 1.11 0 0 1 1.1-1.101h5.6A1.11 1.11 0 0 1 44.8 64v2.6a1.11 1.11 0 0 1-1.1 1.099zm46.2 0h-5.6a1.11 1.11 0 0 1-1.1-1.099V64a1.11 1.11 0 0 1 1.1-1.101h5.6A1.11 1.11 0 0 1 91 64v2.6a1.11 1.11 0 0 1-1.1 1.099zm-11.2 0H49.3a1.11 1.11 0 0 1-1.1-1.099V64a1.11 1.11 0 0 1 1.1-1.101h29.4A1.11 1.11 0 0 1 79.8 64v2.6a1.11 1.11 0 0 1-1.1 1.099zm-35 7.2h-5.6A1.11 1.11 0 0 1 37 73.8v-2.6a1.11 1.11 0 0 1 1.1-1.101h5.6a1.11 1.11 0 0 1 1.1 1.101v2.6a1.11 1.11 0 0 1-1.1 1.101zm46.2 0h-5.6a1.11 1.11 0 0 1-1.1-1.101v-2.6a1.11 1.11 0 0 1 1.1-1.101h5.6A1.11 1.11 0 0 1 91 71.2v2.6a1.11 1.11 0 0 1-1.1 1.101zm-11.2 0H49.3a1.11 1.11 0 0 1-1.1-1.101v-2.6a1.11 1.11 0 0 1 1.1-1.101h29.4a1.11 1.11 0 0 1 1.1 1.101v2.6a1.11 1.11 0 0 1-1.1 1.101zm-35 7.2h-5.6A1.11 1.11 0 0 1 37 81v-2.6a1.11 1.11 0 0 1 1.1-1.099h5.6a1.11 1.11 0 0 1 1.1 1.099V81a1.11 1.11 0 0 1-1.1 1.099zm46.2 0h-5.6A1.11 1.11 0 0 1 83.2 81v-2.6a1.11 1.11 0 0 1 1.1-1.099h5.6A1.11 1.11 0 0 1 91 78.4V81a1.11 1.11 0 0 1-1.1 1.099zm-11.2 0H49.3A1.11 1.11 0 0 1 48.2 81v-2.6a1.11 1.11 0 0 1 1.1-1.099h29.4a1.11 1.11 0 0 1 1.1 1.099V81a1.11 1.11 0 0 1-1.1 1.099zm-35 7.2h-5.6a1.11 1.11 0 0 1-1.1-1.101v-2.6a1.11 1.11 0 0 1 1.1-1.101h5.6a1.11 1.11 0 0 1 1.1 1.101v2.6a1.11 1.11 0 0 1-1.1 1.101zm46.2 0h-5.6a1.11 1.11 0 0 1-1.1-1.101v-2.6a1.11 1.11 0 0 1 1.1-1.101h5.6A1.11 1.11 0 0 1 91 85.6v2.6a1.11 1.11 0 0 1-1.1 1.101zm-11.2 0H49.3a1.11 1.11 0 0 1-1.1-1.101v-2.6a1.11 1.11 0 0 1 1.1-1.101h29.4a1.11 1.11 0 0 1 1.1 1.101v2.6a1.11 1.11 0 0 1-1.1 1.101zm-35 7.2h-5.6A1.11 1.11 0 0 1 37 95.4v-2.6a1.11 1.11 0 0 1 1.1-1.101h5.6a1.11 1.11 0 0 1 1.1 1.101v2.6a1.11 1.11 0 0 1-1.1 1.101zm46.2 0h-5.6a1.11 1.11 0 0 1-1.1-1.101v-2.6a1.11 1.11 0 0 1 1.1-1.101h5.6a1.11 1.11 0 0 1 1.1 1.101v2.6a1.11 1.11 0 0 1-1.1 1.101zm-11.2 0H49.3a1.11 1.11 0 0 1-1.1-1.101v-2.6a1.11 1.11 0 0 1 1.1-1.101h29.4a1.11 1.11 0 0 1 1.1 1.101v2.6a1.11 1.11 0 0 1-1.1 1.101z" fill="#d4dddd"/><path d="M83.892 26.5v7.922c-.004 1.49.846 2.85 2.783 2.876L95 37.32z" fill="#7f0000"/><path d="M50.313 39.66c-1.01-.48-2.083-.848-3.145-1.23-.616-.22-1.206-.477-1.727-.834-1.025-.706-.83-1.852.372-2.306.34-.128.696-.17 1.057-.188 1.392-.065 2.715.155 3.974.678.627.26.834.178 1.047-.385l.616-1.8c.138-.403-.032-.67-.473-.838-.808-.308-1.636-.528-2.508-.647-1.137-.15-1.137-.156-1.142-1.142-.005-1.39-.005-1.39-1.62-1.39-.234 0-.468-.004-.7 0-.754.018-.882.133-.903.79l-.005.885c-.005.872-.01.857-.978 1.16-2.338.733-3.783 2.108-3.937 4.31-.138 1.948 1.04 3.264 2.896 4.222 1.142.59 2.407.94 3.618 1.402.473.18.924.385 1.318.67 1.164.83.95 2.21-.43 2.733-.74.28-1.52.348-2.322.26-1.238-.133-2.423-.413-3.538-.913-.653-.294-.845-.215-1.068.394l-.53 1.59c-.228.715-.143.885.648 1.22 1.01.422 2.088.638 3.188.79.86.12.887.15.898.92l.01 1.05c.005.44.25.697.776.706l1.8-.005c.49-.01.74-.238.74-.665l.005-1.434c-.027-.486.218-.733.76-.863 1.25-.292 2.31-.87 3.13-1.733 2.274-2.383 1.408-5.87-1.812-7.407z" fill="#b70000"/></g></svg>