<?xml version="1.0" standalone="no"?>
<!DOCTYPE svg PUBLIC "-//W3C//DTD SVG 20010904//EN"
 "http://www.w3.org/TR/2001/REC-SVG-20010904/DTD/svg10.dtd">
<svg version="1.0" xmlns="http://www.w3.org/2000/svg"
 width="255.000000pt" height="294.000000pt" viewBox="0 0 255.000000 294.000000"
 preserveAspectRatio="xMidYMid meet">

<g transform="translate(0.000000,294.000000) scale(0.100000,-0.100000)"
fill="#347834" stroke="none">
<path d="M1845 2814 c-71 -7 -131 -13 -132 -13 -11 -3 4 -26 43 -70 l47 -52
-34 -36 c-72 -75 -231 -200 -384 -302 -246 -163 -532 -303 -855 -417 -74 -26
-139 -51 -145 -56 -6 -5 -3 -14 7 -24 14 -14 25 -13 124 11 481 115 939 341
1289 635 43 36 84 70 92 75 11 8 26 -3 63 -45 38 -44 51 -52 61 -43 7 7 20 79
30 160 25 210 28 193 -28 192 -27 -1 -106 -8 -178 -15z"/>
<path d="M1747 2343 c-4 -3 -7 -136 -7 -295 l0 -288 -60 0 -60 0 0 175 0 175
-129 0 c-108 0 -130 -3 -135 -16 -3 -9 -6 -87 -6 -175 l0 -159 -60 0 -59 0 -3
78 -3 77 -130 0 -130 0 -3 -77 -3 -78 -335 0 c-208 0 -351 -4 -378 -11 -56
-14 -114 -62 -137 -113 -17 -39 -19 -81 -19 -701 0 -430 4 -673 11 -698 13
-49 59 -100 113 -126 42 -21 53 -21 945 -21 983 0 934 -3 980 56 20 25 21 39
21 239 l0 212 -94 5 c-100 5 -153 26 -203 80 -62 66 -83 195 -46 279 49 110
114 149 251 149 l92 0 0 205 c0 192 -1 206 -20 225 -20 20 -33 20 -958 20
-832 0 -940 2 -960 16 -28 20 -28 40 2 59 21 14 129 15 969 13 937 -3 946 -3
973 -24 68 -50 69 -54 72 -295 l3 -219 53 0 c60 0 88 -19 69 -48 -9 -15 -37
-18 -199 -22 -178 -5 -191 -6 -222 -28 -101 -72 -95 -240 10 -309 41 -27 45
-28 216 -31 96 -2 185 -1 199 3 14 3 36 18 49 32 24 26 24 28 24 235 l0 210
-34 34 c-19 19 -43 34 -55 34 -21 0 -21 4 -21 185 0 211 -6 235 -80 297 -48
42 -98 58 -179 58 l-61 0 0 279 c0 154 -3 286 -6 295 -5 13 -26 16 -128 16
-68 0 -126 -3 -129 -7z m-484 -1004 c244 -82 393 -332 345 -576 -21 -105 -60
-184 -131 -259 -99 -107 -204 -159 -344 -171 -152 -13 -286 38 -399 151 -107
108 -154 220 -154 372 0 136 45 248 139 347 79 83 178 136 291 157 64 12 184
2 253 -21z m842 -429 c26 -26 25 -84 -1 -111 -47 -46 -134 -10 -134 56 0 74
81 107 135 55z"/>
<path d="M1080 1160 l0 -30 -80 0 -80 0 0 -125 0 -125 -40 0 -40 0 0 -40 0
-40 40 0 40 0 0 -125 0 -125 80 0 80 0 0 -30 c0 -29 1 -30 50 -30 l50 0 0 33
c0 31 4 35 41 46 57 17 131 93 152 156 21 61 22 167 1 227 -22 66 -73 121
-138 149 -51 22 -56 27 -56 57 0 32 0 32 -50 32 -49 0 -50 -1 -50 -30z m82
-140 c52 -15 105 -77 113 -135 22 -145 -51 -235 -193 -235 l-62 0 0 75 0 75
55 0 55 0 0 40 0 40 -55 0 -55 0 0 75 0 75 53 0 c28 0 68 -5 89 -10z"/>
<path d="M2238 401 c-3 -194 -4 -200 -28 -233 l-24 -33 29 19 c100 63 115 102
115 294 l0 152 -44 0 -45 0 -3 -199z"/>
</g>
</svg>
