<svg xmlns="http://www.w3.org/2000/svg" width="48" height="48"><g fill-rule="nonzero"><path d="M23.999 48C10.745 48 0 37.255 0 24S10.745 0 23.999 0 48 10.745 48 24 37.254 48 23.999 48z" fill="#ffcb5b"/><path d="M36.177 12.867l11.811 11.811c-.068 4.68-1.955 10.653-5.379 14.512-4.243 4.783-8.89 7.937-17.062 8.761L13.73 37.125l2.329-3.206-4.074-3.845 24.193-17.207z" fill="#ffb42d"/></g><g transform="scale(.09375)"><g fill-rule="nonzero"><path d="M384 312a8 8 0 0 1-8 8H136a8 8 0 0 1-8-8V144a8 8 0 0 1 8-8h240a8 8 0 0 1 8 8v168z" fill="#418e3d"/><g fill="#231f20"><path d="M376 324H136c-6.617 0-12-5.383-12-12V144c0-6.617 5.383-12 12-12h240c6.617 0 12 5.383 12 12v168c0 6.617-5.383 12-12 12zM136 140c-2.207 0-4 1.793-4 4v168c0 2.207 1.793 4 4 4h240c2.207 0 4-1.793 4-4V144c0-2.207-1.793-4-4-4H136z"/><path d="M376 136h-8v168a8 8 0 0 1-8 8H128a8 8 0 0 0 8 8h240a8 8 0 0 0 8-8V144a8 8 0 0 0-8-8z" fill-opacity=".1"/></g><path d="M368 296.777c0 3.988-3.23 7.223-7.223 7.223H151.219c-3.984 0-7.219-3.234-7.219-7.223v-137.57c0-3.988 3.234-7.223 7.219-7.223h209.559c3.992 0 7.223 3.234 7.223 7.223v137.57H368z" fill="#5aa558"/></g><path d="M288 296h64v16h-64z" fill="#fff"/><path d="M240 320h32v72h-32z" fill="#2c3b56"/><path d="M256 320h16v72h-16z" fill="#231f20" fill-opacity=".1"/><g fill-rule="nonzero"><path d="M184 392h-32l24-72h32l-24 72z" fill="#2c3b56"/><path d="M192 320l-24 72h16l24-72h-16z" fill="#231f20" fill-opacity=".1"/><path d="M328 392h32l-24-72h-32l24 72z" fill="#2c3b56"/><g fill="#231f20"><path d="M336 320h-16l24 72h16l-24-72z" fill-opacity=".1"/><path d="M276 396h-40v-80h40v80zm-32-8h24v-64h-24v64zm-57.117 8h-40.434l26.668-80h40.434l-26.668 80zm-29.332-8h23.566l21.332-64h-23.566l-21.332 64zm208 8h-40.434l-26.668-80h40.434l26.668 80zm-34.668-8h23.566l-21.332-64h-23.566l21.332 64z"/></g><path d="M200.106 247.999h-8.028v-36.357h-7.441v-6.299h15.469v42.656zm78.31 0h-28.125v-7.969l15.469-14.473c1.465-1.367 2.568-2.715 3.311-4.043s1.113-2.598 1.113-3.809c0-1.602-.513-2.925-1.538-3.97s-2.349-1.567-3.97-1.567c-1.719 0-3.047.557-3.984 1.67s-1.406 2.676-1.406 4.688v.732h-8.408v-.117c0-4.395 1.279-7.925 3.838-10.591s5.938-3.999 10.137-3.999c3.887 0 7.148 1.279 9.785 3.838s3.955 5.684 3.955 9.375c0 2.031-.518 4.014-1.553 5.947s-2.637 3.867-4.805 5.801l-11.924 10.811h18.105v7.676z" fill="#fff"/></g><path d="M215.977 223.98h24v8h-24z" fill="#fff"/><path d="M223.977 215.98h8v24h-8zM296 216h24v8h-24zm0 16h24v8h-24z" fill="#fff"/></g></svg>