<svg xmlns="http://www.w3.org/2000/svg" width="48" height="48"><ellipse cx="256.5" cy="256" rx="255.5" ry="256" fill="#7c3b1f" transform="matrix(.093934 0 0 .09375 -.093933 0)"/><g fill-rule="nonzero"><path d="M47.733 27.602c-.497 3.356-2.319 8.224-4.781 11.161-2.083 2.485-6.925 7.831-16.043 9.049L16.3 37.065c.281.035 17.99-22.749 17.99-22.749l13.443 13.287z" fill="#4f2513"/><path d="M14.284 16.879c.437-.03 1.067-.189 1.553-.183.006.072.007.162.003.262-.019.534-.156 1.361-.156 1.374-.467-.435-.934-.943-1.4-1.453z" fill="#663019"/><path d="M32.399 16.882l.012 4.311.001 11.065v3.556c0 .824-.561 1.407-1.384 1.408-4.648.004-9.297-.003-13.945-.006-1.002-.001-1.409-.582-1.407-1.491l.011-18.844 16.712.002" fill="#bdbebc"/><path d="M32.443 16.878H15.692l-1.413-.004c-.427-.232-.604-.587-.569-1.072.024-.326.001-.655.005-.983.009-.619.327-.94.95-.942l3.518-.002h.604v-1.781c0-.942.179-1.125 1.104-1.125h8.35c.742 0 .971.231.973.975l.001 2.03.687-.005 3.612-.003c.359-.003.641.101.833.457l.026 1.474c-.005.622-.315.941-.947.968l-.982.012m-4.39-4.784h-8.098v1.84h8.098v-1.84z"/><path d="M17.838 30.938V21.52v-.468c-.014-.382.134-.679.539-.672s.518.316.518.693l.001 12.041c.001.379-.117.656-.517.706-.321.04-.532-.258-.537-.727l-.003-2.155zm4.813-9.89l-.002 11.807v.281c.02.385-.138.677-.536.676-.372-.001-.518-.283-.518-.648l-.001-12.135c0-.365.141-.644.515-.65.405-.006.545.284.541.669zm3.941.047l.002 11.76v.281c.02.385-.138.681-.535.676-.404-.004-.52-.319-.52-.694l-.001-12.041c0-.375.109-.659.517-.705.329-.037.534.25.537.723zm3.854 6.749l-.001 5.013-.005.422c-.014.433-.263.518-.528.521a.48.48 0 0 1-.497-.504l-.024-11.939c0-.702.146-.979.517-.989.378-.01.537.275.537.965l.001 6.512z" fill="gray"/></g></svg>