<svg xmlns="http://www.w3.org/2000/svg" xmlns:xlink="http://www.w3.org/1999/xlink" width="48" height="48"><g transform="scale(.375)"><circle r="64" cy="64" cx="64" fill="#65c2c4"/><defs><circle r="64" id="A" cy="64" cx="64"/></defs><clipPath id="B"><use xlink:href="#A"/></clipPath><path clip-path="url(#B)" d="M128 61.1l-12.4-12.4-103.1 2.8 24.1 24.1-1.1 9.6L78.4 128H128z" opacity=".76" fill="#00adb0"/><path d="M95.4 51.3H32.6v27.9c0 6.6 9.8 12.1 23.1 13.8 2.7.3 6.5.4 8.3.4s5.6 0 8.2-.4c13.3-1.6 23.2-7.2 23.2-13.8V79z" fill="#364a62"/><path d="M32.6 79v.2c0 5.8 7.7 10.8 18.7 13.1v-41H32.6z" fill="#3c516a"/><path d="M95.4 51.3H76.7v41c11-2.2 18.7-7.2 18.7-13.1V79z" fill="#2b3d52"/><path d="M115.9 49.4c0 .7.3 1.9-.7 2.3l-49 20.7c-1.4.6-3 .6-4.5 0L12.8 51.7c-1-.4-.7-1.8-.7-2.3l49.7-18.9c1.3-.5 2.8-.5 4.2 0z" fill="#27384c"/><path d="M115.1 48.3c1 .4 1 1.7 0 2.1L66.2 71.1c-1.4.6-3 .6-4.5 0L12.8 50.5c-1-.4-.9-1.8 0-2.1l49-19c1.3-.5 2.8-.5 4.2 0z" fill="#31465f"/><path d="M95.8 99l-6.1-12.5h-1.2L82.2 99v-.1c0 2 3 3.5 6.8 3.5s6.8-1.5 6.8-3.4c0-.1-.1 0 0 0z" fill="#f4c600"/><defs><path id="C" d="M95.8 99l-6.1-12.5h-1.2L82.2 99v-.1c0 2 3 3.5 6.8 3.5s6.8-1.5 6.8-3.4c0-.1-.1 0 0 0z"/></defs><clipPath id="D"><use xlink:href="#C"/></clipPath><path clip-path="url(#D)" d="M92.3 90.6l-6.4.7 9.9 10 .8-3.1z" fill="#efac1f"/><g fill="#f4c600"><path d="M90 83.3v-22c0-.4-.2-.8-.6-.9l-24.6-10c-.5-.2-1.1 0-1.3.5s0 1.1.5 1.3L88 62v21.4c-1.6.4-2.7 1.8-2.7 3.5a3.76 3.76 0 0 0 3.7 3.7 3.76 3.76 0 0 0 3.7-3.7c0-1.7-1.1-3.1-2.7-3.6z"/><circle r="5.5" cy="86.8" cx="89"/></g></g></svg>