<svg xmlns="http://www.w3.org/2000/svg" width="48" height="48"><path d="M48 24c0 .715-.03 1.424-.093 2.123C46.833 38.383 36.54 48 24 48c-3.785 0-7.364-.876-10.548-2.437C5.485 41.66 0 33.47 0 24 0 10.745 10.745 0 24 0s24 10.745 24 24z" fill="#efc849"/><path d="M47.874 21.24c.33 14.433-6.722 21.523-15.11 24.97 0 0-5.652 2.405-12.225 1.522L4.387 31.507c-1.103-.992-1.665-2.54-1.72-4.027-.077-2.053.802-4.248 2.847-4.983.033-.153.138-.284.29-.344l.924-.36c-.036-.232-.057-.467-.062-.702-.02-1.068.287-2.088.873-2.925.168-.243.36-.47.574-.68l2.33-2.17c5.532-4.258 12.145-6.94 19.094-7.556 1.087-.096 4.007.12 4.4.236.842.25 1.612.732 2.23 1.407.112.102 11.658 11.788 11.706 11.836z" opacity=".17"/><g transform="scale(.09375) translate(-6.136 -59.317)"><path d="M434.938 368.987c-8.715-9.35-33.703-14.497-65.205-13.436l-156.828 4.542.305 6.477 156.838-4.543c33.6-1.133 54.83 5.003 60.968 11.588.68.73 1.495 1.83 1.51 2.925l.012.23c.087 1.1-.623 2.235-1.233 3.002-5.503 6.92-26.096 14.263-59.727 15.084l-287.246 5.39c-28.983.484-43.125-24.5-44-47.9s11.377-48.825 40.373-49.31l-.244-6.48c-32.94.582-46.88 29.355-45.89 55.887s17.056 54.83 50 54.28l287.297-5.395c6.94-.166 13.535-.617 19.688-1.32 21.788-2.494 37.996-8.184 44.09-15.85 1.934-2.43 2.82-5 2.642-7.673-.07-2.667-1.198-5.19-3.353-7.5z" fill="#5c6f82"/><path d="M82.347 305.96l-10.926 2.103a5.07 5.07 0 0 1-5.919-3.942l-.573-2.743a5.07 5.07 0 0 1 3.125-5.76l11.7-4.55z" fill="#141c24"/><path d="M392.58 160.342c-6.703-7.57-15.165-12.958-24.438-15.727-4.197-1.232-35.336-3.545-46.932-2.516-74.122 6.582-144.66 35.183-203.676 80.596-1.875 1.43-24.85 23.167-24.85 23.167-2.28 2.22-4.333 4.646-6.125 7.242-6.245 8.927-9.52 19.81-9.31 31.193.283 14.68 6.386 29.02 16.957 39.846 6.453 7.098 17.832 7.326 25.703.49l38.382-33.252c3.697-3.195 5.9-7.77 6.114-12.67.112-2.718-3.14-16.7-5.833-27.74-1.964-8.052 2.33-16.274 10.05-19.29l123.956-48.408c8.367-3.268 17.816.746 21.266 9.04 4.084 9.82 9.042 21.167 10.862 22.986a17.69 17.69 0 0 0 13.082 5.174l50.757-1.56c10.425-.307 18.635-8.187 18.557-17.773.45-15.13-4.78-29.8-14.52-40.796z" fill="#2d648e"/><g fill="#12344c"><path d="M132.164 269.422l-43.402 35.213c-1.8 1.463-3.747 2.623-5.765 3.512 2.804 5.83 6.578 11.25 11.2 15.996 6.453 7.098 17.832 7.325 25.704.488l38.382-33.252c3.698-3.195 5.9-7.77 6.114-12.67.112-2.718-3.14-16.697-5.833-27.74-.156-.64-.26-1.28-.337-1.918-9.666 8.222-23.398 18.207-26.073 20.37zm262.142-86.816l-79.98 10.86c3.984 9.534 8.63 20.08 10.38 21.83a17.68 17.68 0 0 0 13.083 5.174l50.76-1.56c10.422-.307 18.635-8.187 18.555-17.773a60.18 60.18 0 0 0-3.097-20.911c-2.175 1.362-5.28 2.107-9.7 2.38z"/><path d="M322.678 183.147c4.36-17.78 17.35-30.078 30.563-30.058l-.94-.286c-14.1-3.79-29.286 8.454-33.923 27.347-3.605 14.695.233 29.082 8.748 36.538-5.565-8.508-7.55-20.914-4.448-33.54zM148.7 255.114c-12.866-13.023-30.327-16.914-41.655-10.12l.66-.727c10.155-10.487 29.474-7.77 43.148 6.068 10.636 10.76 14.72 25.078 11.24 35.85.408-10.16-4.254-21.823-13.395-31.07z"/><path d="M364.22 313.7c-7.757-23.622-16.13-44.87-21.722-52.937-10.716-16.1-28.112-25.06-43.098-25.072h-86.422c-14.988.014-32.38 8.965-43.095 25.072-5.634 8.08-14.01 29.32-21.756 52.937z"/></g><path d="M342.498 265.35c-10.716-15.175-28.112-23.604-43.098-23.615h-86.422c-14.988.012-32.38 8.443-43.095 23.615-13.017 17.58-40.687 101.362-41.37 125.963-.198 6.65 3.072 13.377 8.514 18.406 5.452 5.04 12.385 7.9 18.87 7.902h200.58c6.483-.003 13.416-2.866 18.87-7.902 5.442-5.03 8.71-11.755 8.514-18.406-.683-24.63-28.45-108.415-41.367-125.963z" fill="#2d648e"/><path d="M364.243 315.633c2.634 11.91 4.337 22.055 4.488 28.34.174 6.652-2.693 13.376-7.46 18.406-4.78 5.037-10.857 7.9-16.542 7.902H168.91c-5.687-.002-11.762-2.863-16.543-7.902-4.77-5.03-7.636-11.754-7.46-18.406.204-8.347 3.13-23.515 7.357-40.594-11.737 31.48-23.433 72.046-23.874 87.933-.197 6.65 3.072 13.377 8.514 18.406 5.454 5.04 12.386 7.9 18.872 7.902h200.58c6.484-.003 13.416-2.866 18.87-7.902 5.442-5.03 8.71-11.755 8.514-18.406-.386-13.898-9.4-46.638-19.497-75.68zM327.96 288.2c.49 2.208.757 4.464.757 6.758 0 25.935-32.473 46.956-72.53 46.956-17.203 0-33.006-3.878-45.438-10.354-16.52-8.607-27.092-21.802-27.092-36.602 0-2.294.268-4.55.76-6.758-1.254 3.518-1.94 7.18-1.94 10.945 0 26.565 33.002 48.1 73.7 48.1s73.712-21.53 73.712-48.1c0-3.766-.685-7.427-1.94-10.945z" fill="#12344c"/><path d="M255.07 252.45c-37.5 0-67.9 18.24-67.9 40.76 0 19.2 22.13 35.3 51.93 39.63 5.12.74 10.47 1.13 15.98 1.13 33.74 0 61.74-14.77 67.02-34.12.6-2.16.9-4.38.9-6.64 0-22.52-30.4-40.76-67.92-40.76z" fill="#f4eee3"/><path d="M322.465 299.43v.42c-6 19.35-33.468 34.12-67.208 34.12-5.5 0-10.766-.4-15.886-1.13l-17.906-17.4v-7.68c0-.2-.228-.38.822-2.89.3-.72.526-1.53.916-2.4l1.133-2.66 3.227-7.1 1.378-3.117-6.852-6.857h-.625v-2.206c0-4.58.632-8.16 2.242-10.62 1.46-2.3 3.346-3.46 5.766-3.46 1.77 0 3.273.8 4.613 2.38.115.095 7.464 7.59 7.486 7.613l2.646-9.707h5.87l.125 1.5 12.875 12.5h.1l4.15-17h5.25l-.25 1 1.98 2h15.155v.714c.003.001 32.003 32 33.003 32z" opacity=".15"/><path d="M221.838 280.507c0-4.454.77-7.858 2.306-10.21 1.33-2.077 3.074-3.116 5.235-3.116 1.985 0 3.678 1.164 5.08 3.49s2.102 5.044 2.102 8.147c0 3.203-.457 6.294-1.37 9.272-.496 1.65-1.657 4.492-3.482 8.52l-3.025 7.06-1.2 2.966c-.128.37-.192.597-.192.676h8.91v6.945h-14.433v-6.51c0-.15.33-1.016.99-2.596l1.037-2.397 1.182-2.66 3.246-7.094c1.394-3.052 2.436-5.816 3.125-8.294.56-2.025.842-3.915.842-5.667 0-1.426-.256-2.64-.77-3.64-.56-1.05-1.28-1.576-2.16-1.576-1.265 0-2.162 1.14-2.7 3.416-.176.75-.264 1.65-.264 2.703v1.802h-4.467v-1.238z" fill="#12344c"/><path d="M236.95 315.008h-15.933v-7.26c0-.193 0-.377 1.05-2.885l1.043-2.41 1.182-2.662 3.248-7.1c1.373-3.005 2.41-5.758 3.086-8.186.54-1.95.814-3.8.814-5.466 0-1.3-.23-2.41-.686-3.298-.623-1.168-1.278-1.168-1.494-1.168-.864 0-1.523.954-1.96 2.836-.163.692-.245 1.544-.245 2.533v2.552h-5.967v-1.99c0-4.582.817-8.155 2.428-10.62 1.465-2.29 3.44-3.456 5.863-3.456 2.257 0 4.182 1.297 5.722 3.854 1.466 2.436 2.21 5.308 2.21 8.534 0 3.262-.472 6.456-1.402 9.492-.502 1.673-1.686 4.57-3.516 8.61l-2.2 5.124-.818 1.92-1.06 2.598h8.637zm-14.433-1.5h12.934v-5.445h-8.91v-.75c0-.16.037-.354.233-.92l1.22-3.013.817-1.917 2.216-5.158c1.803-3.98 2.963-6.815 3.447-8.43.888-2.897 1.337-5.943 1.337-9.057 0-2.95-.67-5.562-1.994-7.76-1.267-2.104-2.718-3.128-4.437-3.128-1.905 0-3.41.906-4.603 2.77-1.453 2.224-2.188 5.52-2.188 9.807v.49h2.967v-1.052c0-1.104.096-2.07.284-2.874.615-2.65 1.766-3.995 3.42-3.995.808 0 1.953.343 2.823 1.974.57 1.113.857 2.453.857 3.992 0 1.812-.292 3.785-.87 5.867-.697 2.504-1.762 5.33-3.166 8.405l-3.248 7.1-1.176 2.647-1.032 2.384-.94 2.403z" opacity=".4"/><path d="M236.775 296.988l8.02-29.81h4.54v29.81h2.906v7.133h-2.906v10.137h-4.54V304.12h-8.02zm8.02 0v-14.703l-3.75 14.703z" fill="#12344c"/><path d="M250.085 315.008h-6.04V304.87h-8.02l.026-8.078 8.17-30.363h5.863v29.81H253v8.633h-2.906v10.136zm-4.54-1.5h3.04V303.37h2.906v-5.633h-2.906V267.93h-3.214l-7.846 29.158v6.283h8.02zm0-15.77h-5.464l5.464-21.43zm-3.533-1.5h2.033v-7.976z" opacity=".4"/><path d="M267.92 264.252h3.7l-12.56 51.47h-3.7z" fill="#12344c"/><path d="M259.648 316.472h-5.245l12.927-52.97h5.245zm-3.335-1.5h2.157l12.194-49.97h-2.157z" opacity=".4"/><path d="M288.382 267.18v7.133l-6.365 39.945h-4.455l6.365-39.945h-9.186v-7.133z" fill="#12344c"/><path d="M282.658 315.008h-5.974l6.365-39.945h-9.057v-8.633h15.14l-.01 8zm-4.216-1.5h2.936l6.255-39.255v-6.323h-12.14v5.633h9.314z" opacity=".4"/><path d="M323.798 312.2l-2.13-12.304-28.69-8.2c-.19.006-.336.116-.444.26-.058.072-.122.14-.14.234-.053.28.092.562.353.676l25.78 14.813 2.234 8.953z" opacity=".3"/><path d="M324.08 291.997c-5.223-.884-19.583-1.544-30.853-1.243-.188.007-.335.115-.443.26-.058.072-.122.14-.14.234-.053.28.09.56.353.677l27.732 12.254-.015 12.543c2.355-2.9 3.893-5.293 5.134-8.15.63-1.448 1.188-3.004 1.73-4.816.106-4.805-3.496-11.757-3.496-11.757z" fill="#e64f30"/></g></svg>